<svg width="81" height="37" viewBox="0 0 81 37" fill="none" xmlns="http://www.w3.org/2000/svg">
<path d="M8.62668 0.283163C8.53587 0.991071 8.47534 1.71471 8.44507 2.45408C8.4148 3.17772 8.39966 3.93282 8.39966 4.71939C8.39966 6.11947 8.46777 7.55102 8.60398 9.01403C8.74019 10.4613 8.94451 11.9086 9.21693 13.3559C9.48935 14.8031 9.82988 16.2268 10.2385 17.6269C10.6471 19.0113 11.1163 20.3327 11.646 21.5912C12.1909 22.8497 12.7962 24.0217 13.4622 25.1071C14.1432 26.1926 14.8924 27.1522 15.7096 27.986C16.6026 27.0264 17.3215 25.9252 17.8663 24.6824C18.4263 23.4239 18.8576 22.1182 19.1603 20.7653C19.4781 19.3967 19.69 18.0202 19.796 16.6358C19.9019 15.2515 19.9624 13.9379 19.9776 12.6952H24.972C24.972 13.9379 25.0249 15.2436 25.1309 16.6122C25.2368 17.9809 25.4411 19.3416 25.7438 20.6945C26.0465 22.0317 26.4703 23.3295 27.0151 24.588C27.56 25.8308 28.2713 26.9477 29.1491 27.9388C30.4204 26.5072 31.5177 24.8869 32.4409 23.0778C33.3641 21.253 34.1284 19.3416 34.7337 17.3438C35.3391 15.3459 35.7856 13.3008 36.0732 11.2085C36.3607 9.11628 36.5045 7.06335 36.5045 5.04974C36.5045 3.3665 36.4137 1.74617 36.2321 0.188776C37.5639 0.251701 38.752 0.346088 39.7962 0.471939C40.8557 0.597789 41.7713 0.723639 42.5432 0.84949C43.421 1.0068 44.208 1.16412 44.9041 1.32143V7.26786C44.4047 7.09481 43.9128 6.9611 43.4285 6.86671C42.9594 6.75659 42.4978 6.63861 42.0437 6.51275C42.0437 9.89498 41.7259 13.0334 41.0902 15.9279C40.4697 18.8068 39.5995 21.4968 38.4795 23.9981C37.3596 26.4994 36.0202 28.8197 34.4613 30.9592C32.9025 33.0986 31.1923 35.0965 29.3307 36.9528C27.9989 35.6156 26.7578 34.1212 25.6076 32.4694C24.4725 30.8176 23.4283 28.9456 22.4748 26.8533C21.491 28.9456 20.4165 30.8255 19.2511 32.493C18.1009 34.1605 16.8599 35.6628 15.528 37C13.6816 35.1437 11.9941 33.1458 10.4655 31.0064C8.93694 28.8669 7.6278 26.5466 6.53812 24.0453C5.44843 21.544 4.6009 18.854 3.99552 15.9751C3.39013 13.0806 3.08744 9.94218 3.08744 6.55995C2.5426 6.6858 2.01289 6.80378 1.49832 6.9139C0.998879 7.00829 0.499439 7.14201 0 7.31505V1.32143C0 1.33716 0.196749 1.3057 0.590247 1.22704C0.998879 1.14838 1.57399 1.054 2.31558 0.943878C3.07231 0.818027 3.98038 0.700042 5.0398 0.589923C6.09922 0.464073 7.29484 0.36182 8.62668 0.283163Z" fill="#34547A"/>
<path d="M64.0191 0C66.3498 0 68.5443 0.212372 70.6026 0.637117C72.6609 1.06186 74.4619 1.65179 76.0056 2.40689C77.5493 3.16199 78.7677 4.0744 79.6606 5.14413C80.5535 6.19813 81 7.36224 81 8.63648V27.4196C81 28.6939 80.5535 29.8659 79.6606 30.9356C78.7677 31.9896 77.5493 32.8941 76.0056 33.6492C74.4619 34.4043 72.6609 34.9943 70.6026 35.419C68.5443 35.8438 66.3498 36.0561 64.0191 36.0561C62.7175 36.0561 61.3857 36.0089 60.0235 35.9145C58.6614 35.8044 57.3372 35.6707 56.0507 35.5134C54.7794 35.3403 53.5838 35.1437 52.4638 34.9235C51.3439 34.7032 50.3828 34.4673 49.5807 34.2156V1.84056C50.3828 1.58886 51.3439 1.35289 52.4638 1.13265C53.5838 0.912415 54.7794 0.723639 56.0507 0.566326C57.3372 0.393282 58.6614 0.259566 60.0235 0.165179C61.3857 0.0550595 62.7175 0 64.0191 0ZM64.1099 5.33291C62.7326 5.33291 61.537 5.3801 60.523 5.47449C59.509 5.55315 58.6387 5.66327 57.9123 5.80485C57.1858 5.9307 56.5804 6.07228 56.0961 6.22959C55.627 6.37117 55.241 6.49702 54.9383 6.60714V29.449C55.241 29.5748 55.627 29.7085 56.0961 29.8501C56.5804 29.9917 57.1858 30.1333 57.9123 30.2749C58.6387 30.4007 59.509 30.5108 60.523 30.6052C61.537 30.6839 62.7326 30.7232 64.1099 30.7232C65.8049 30.7232 67.326 30.5816 68.6729 30.2985C70.035 30.0153 71.1777 29.6378 72.1009 29.1658C73.0392 28.6939 73.7581 28.1511 74.2576 27.5376C74.757 26.9084 75.0067 26.2555 75.0067 25.5791V10.477C75.0067 9.8006 74.757 9.15561 74.2576 8.54209C73.7581 7.91284 73.0392 7.36224 72.1009 6.89031C71.1777 6.41837 70.035 6.04082 68.6729 5.75765C67.326 5.47449 65.8049 5.33291 64.1099 5.33291Z" fill="#34547A"/>
</svg>
